<?xml version="1.0" standalone="no"?>
<!DOCTYPE svg PUBLIC "-//W3C//DTD SVG 20010904//EN"
 "http://www.w3.org/TR/2001/REC-SVG-20010904/DTD/svg10.dtd">
<svg version="1.0" xmlns="http://www.w3.org/2000/svg"
 width="128.000000pt" height="128.000000pt" viewBox="0 0 128.000000 128.000000"
 preserveAspectRatio="xMidYMid meet">
<metadata>
Created by potrace 1.11, written by Peter Selinger 2001-2013
</metadata>
<g transform="translate(0.000000,128.000000) scale(0.100000,-0.100000)"
fill="#000000" stroke="none">
<path d="M540 1090 c0 -29 -1 -30 -50 -30 -49 0 -50 -1 -50 -30 0 -27 -3 -30
-30 -30 -23 0 -30 -4 -30 -20 0 -16 -7 -20 -30 -20 -27 0 -30 -3 -30 -30 0
-23 -4 -30 -20 -30 -16 0 -20 -7 -20 -30 0 -27 -3 -30 -30 -30 -29 0 -30 -1
-30 -50 0 -49 -1 -50 -30 -50 l-30 0 0 -110 0 -110 30 0 c29 0 30 -1 30 -50 0
-49 1 -50 30 -50 27 0 30 -3 30 -30 0 -23 4 -30 20 -30 13 0 20 -7 20 -20 0
-16 7 -20 30 -20 27 0 30 -3 30 -30 0 -27 3 -30 30 -30 27 0 30 -3 30 -30 0
-29 1 -30 50 -30 43 0 50 -3 50 -20 0 -19 7 -20 110 -20 103 0 110 1 110 20 0
17 7 20 50 20 49 0 50 1 50 30 0 27 3 30 30 30 27 0 30 3 30 30 0 23 4 30 20
30 13 0 20 7 20 20 0 16 7 20 30 20 27 0 30 3 30 30 0 27 3 30 30 30 29 0 30
1 30 50 0 43 3 50 20 50 19 0 20 7 20 110 0 103 -1 110 -20 110 -17 0 -20 7
-20 50 0 49 -1 50 -30 50 -27 0 -30 3 -30 30 0 27 -3 30 -30 30 -27 0 -30 3
-30 30 0 23 -4 30 -20 30 -13 0 -20 7 -20 20 0 16 -7 20 -30 20 -27 0 -30 3
-30 30 0 29 -1 30 -50 30 -49 0 -50 1 -50 30 l0 30 -110 0 -110 0 0 -30z"/>
</g>
</svg>
